<svg width="1512" height="720" viewBox="0 0 1512 720" fill="none" xmlns="http://www.w3.org/2000/svg">
<g style="mix-blend-mode:exclusion" opacity="0.25" clip-path="url(#clip0_2384_3590)">
<mask id="mask0_2384_3590" style="mask-type:luminance" maskUnits="userSpaceOnUse" x="-34" y="-21" width="2241" height="1600">
<path d="M2206.55 -21H-33.0781V1579H2206.55V-21Z" fill="white"/>
</mask>
<g mask="url(#mask0_2384_3590)">
<mask id="mask1_2384_3590" style="mask-type:luminance" maskUnits="userSpaceOnUse" x="-2417" y="-1895" width="4336" height="4506">
<path d="M1918.32 -1894.77H-2416.41V2610.74H1918.32V-1894.77Z" fill="white"/>
</mask>
<g mask="url(#mask1_2384_3590)">
<path d="M1097.24 296.516C1162.95 296.516 1216.22 243.234 1216.22 177.508C1216.22 111.782 1162.95 58.5 1097.24 58.5C1031.52 58.5 978.25 111.782 978.25 177.508C978.25 243.234 1031.52 296.516 1097.24 296.516Z" stroke="#1A1A1A" stroke-opacity="0.3" stroke-width="40" stroke-miterlimit="10"/>
<path d="M1386.96 881.676C1452.68 881.676 1505.95 828.394 1505.95 762.668C1505.95 696.942 1452.68 643.66 1386.96 643.66C1321.25 643.66 1267.98 696.942 1267.98 762.668C1267.98 828.394 1321.25 881.676 1386.96 881.676Z" stroke="#1A1A1A" stroke-opacity="0.3" stroke-width="40" stroke-miterlimit="10"/>
<path d="M1572.82 607.926C1623.6 607.926 1664.77 566.755 1664.77 515.967C1664.77 465.179 1623.6 424.008 1572.82 424.008C1522.05 424.008 1480.88 465.179 1480.88 515.967C1480.88 566.755 1522.05 607.926 1572.82 607.926Z" stroke="#1A1A1A" stroke-opacity="0.3" stroke-width="40" stroke-miterlimit="10"/>
<path d="M1097.24 789.629C1148.02 789.629 1189.18 748.458 1189.18 697.67C1189.18 646.882 1148.02 605.711 1097.24 605.711C1046.46 605.711 1005.3 646.882 1005.3 697.67C1005.3 748.458 1046.46 789.629 1097.24 789.629Z" stroke="#1A1A1A" stroke-opacity="0.3" stroke-width="40" stroke-miterlimit="10"/>
<path d="M1703.68 38.4844C1703.68 38.4844 1504.26 51.8962 1532.76 273.136" stroke="#1A1A1A" stroke-opacity="0.3" stroke-width="40" stroke-miterlimit="10" stroke-linecap="round"/>
<path d="M1024.84 533.014C1024.84 533.014 1174.37 516.486 1145.8 351.031" stroke="#1A1A1A" stroke-opacity="0.3" stroke-width="40" stroke-miterlimit="10" stroke-linecap="round"/>
<path d="M1231.88 561.549C1231.88 561.549 1381.41 545.021 1352.84 379.566" stroke="#1A1A1A" stroke-opacity="0.3" stroke-width="40" stroke-miterlimit="10" stroke-linecap="round"/>
<path d="M1242.09 393.72L1411.9 199.293L1440.94 393.72" stroke="#1A1A1A" stroke-opacity="0.3" stroke-width="40" stroke-linecap="round" stroke-linejoin="round"/>
<path d="M230.29 296.516C296.004 296.516 349.276 243.234 349.276 177.508C349.276 111.782 296.004 58.5 230.29 58.5C164.576 58.5 111.305 111.782 111.305 177.508C111.305 243.234 164.576 296.516 230.29 296.516Z" stroke="#1A1A1A" stroke-opacity="0.3" stroke-width="40" stroke-miterlimit="10"/>
<path d="M520.032 881.676C585.746 881.676 639.018 828.394 639.018 762.668C639.018 696.942 585.746 643.66 520.032 643.66C454.318 643.66 401.047 696.942 401.047 762.668C401.047 828.394 454.318 881.676 520.032 881.676Z" stroke="#1A1A1A" stroke-opacity="0.3" stroke-width="40" stroke-miterlimit="10"/>
<path d="M890.29 392.145C956.004 392.145 1009.28 338.863 1009.28 273.137C1009.28 207.411 956.004 154.129 890.29 154.129C824.576 154.129 771.305 207.411 771.305 273.137C771.305 338.863 824.576 392.145 890.29 392.145Z" stroke="#1A1A1A" stroke-opacity="0.3" stroke-width="40" stroke-miterlimit="10"/>
<path d="M705.879 607.926C756.657 607.926 797.821 566.755 797.821 515.967C797.821 465.179 756.657 424.008 705.879 424.008C655.101 424.008 613.938 465.179 613.938 515.967C613.938 566.755 655.101 607.926 705.879 607.926Z" stroke="#1A1A1A" stroke-opacity="0.3" stroke-width="40" stroke-miterlimit="10"/>
<path d="M230.293 789.629C281.071 789.629 322.235 748.458 322.235 697.67C322.235 646.882 281.071 605.711 230.293 605.711C179.515 605.711 138.352 646.882 138.352 697.67C138.352 748.458 179.515 789.629 230.293 789.629Z" stroke="#1A1A1A" stroke-opacity="0.3" stroke-width="40" stroke-miterlimit="10"/>
<path d="M836.734 38.4844C836.734 38.4844 637.315 51.8962 665.81 273.136" stroke="#1A1A1A" stroke-opacity="0.3" stroke-width="40" stroke-miterlimit="10" stroke-linecap="round"/>
<path d="M157.898 533.014C157.898 533.014 307.426 516.486 278.852 351.031" stroke="#1A1A1A" stroke-opacity="0.3" stroke-width="40" stroke-miterlimit="10" stroke-linecap="round"/>
<path d="M364.938 561.549C364.938 561.549 514.465 545.021 485.891 379.566" stroke="#1A1A1A" stroke-opacity="0.3" stroke-width="40" stroke-miterlimit="10" stroke-linecap="round"/>
<path d="M375.141 393.72L544.951 199.293L573.997 393.72" stroke="#1A1A1A" stroke-opacity="0.3" stroke-width="40" stroke-linecap="round" stroke-linejoin="round"/>
<path d="M1124.49 379.566L890.289 613.824" stroke="#1A1A1A" stroke-opacity="0.3" stroke-width="40" stroke-miterlimit="10" stroke-linecap="round"/>
<path d="M695.711 644.43L804.043 880.904" stroke="#1A1A1A" stroke-opacity="0.3" stroke-width="40" stroke-miterlimit="10" stroke-linecap="round"/>
<path d="M23.337 392.145C89.0509 392.145 142.322 338.863 142.322 273.137C142.322 207.411 89.0509 154.129 23.337 154.129C-42.3768 154.129 -95.6484 207.411 -95.6484 273.137C-95.6484 338.863 -42.3768 392.145 23.337 392.145Z" stroke="#1A1A1A" stroke-opacity="0.3" stroke-width="40" stroke-miterlimit="10"/>
<path d="M257.549 379.566L23.3359 613.824" stroke="#1A1A1A" stroke-opacity="0.3" stroke-width="40" stroke-miterlimit="10" stroke-linecap="round"/>
<path d="M846.516 735.406L1030.41 919.325" stroke="#1A1A1A" stroke-opacity="0.3" stroke-width="40" stroke-miterlimit="10" stroke-linecap="round"/>
<path d="M-20.4219 735.406L163.472 919.325" stroke="#1A1A1A" stroke-opacity="0.3" stroke-width="40" stroke-miterlimit="10" stroke-linecap="round"/>
</g>
</g>
</g>
<defs>
<clipPath id="clip0_2384_3590">
<rect width="1512" height="720" fill="white"/>
</clipPath>
</defs>
</svg>
